<svg width="19" height="19" viewBox="0 0 19 19" fill="none" xmlns="http://www.w3.org/2000/svg">
<path d="M0.000647329 3.05973C0.0295084 2.95635 0.0562702 2.85245 0.0872302 2.7496C0.330188 1.94779 1.05119 1.38421 1.88921 1.34118C1.97422 1.33698 2.05923 1.33436 2.14371 1.33436C4.705 1.33436 7.26629 1.33383 9.82758 1.33488C9.9362 1.33488 10.0485 1.33383 10.1534 1.35692C10.4557 1.42304 10.6682 1.71847 10.6504 2.03227C10.632 2.35709 10.387 2.62366 10.0705 2.65672C9.98657 2.66564 9.90104 2.66249 9.81603 2.66249C7.24267 2.66249 4.66932 2.66249 2.09596 2.66249C1.7129 2.66249 1.4479 2.83094 1.36604 3.14001C1.3356 3.25493 1.3356 3.38035 1.33508 3.50051C1.3335 6.23759 1.33403 8.9752 1.33403 11.7123C1.33403 13.3023 1.33403 14.8928 1.33403 16.4827C1.33403 16.5735 1.33403 16.6654 1.3461 16.7551C1.38283 17.0364 1.61739 17.2672 1.89971 17.3019C1.98366 17.3124 2.0692 17.3129 2.15421 17.3129C6.04468 17.3129 9.93515 17.3129 13.8256 17.3129C13.9106 17.3129 13.9962 17.3118 14.0801 17.3019C14.3766 17.2667 14.6148 17.0206 14.6416 16.722C14.6495 16.6375 14.6479 16.552 14.6479 16.4675C14.6479 14.3554 14.6474 12.2433 14.65 10.1312C14.65 10.0058 14.6615 9.87409 14.7004 9.75549C14.7891 9.4842 15.0672 9.30998 15.3516 9.3252C15.6397 9.34042 15.8853 9.53877 15.955 9.82056C15.975 9.9019 15.9839 9.98848 15.9844 10.0724C15.986 12.2512 15.9886 14.4305 15.9844 16.6092C15.9823 17.5826 15.3705 18.3661 14.4464 18.587C14.2717 18.629 14.0864 18.6442 13.9059 18.6442C9.96086 18.6473 6.01582 18.6473 2.07077 18.6463C1.01078 18.6463 0.232584 18.0019 0.0289825 16.9639C0.0242598 16.9414 0.0100923 16.9204 0.00012207 16.8983C0.00012207 12.2848 0.00012207 7.67172 0.00012207 3.05815L0.000647329 3.05973Z" fill="black"/>
<path d="M16.3908 0.000402676C16.7403 0.128441 17.1181 0.207153 17.434 0.392388C18.7841 1.18318 19.0544 3.07384 18.0059 4.23668C17.9246 4.32694 17.8401 4.41405 17.7546 4.49958C14.9231 7.33164 12.09 10.1626 9.26 12.9963C9.09733 13.1595 8.91734 13.2728 8.69694 13.3452C7.45434 13.753 6.21384 14.1691 4.97334 14.5842C4.73091 14.6655 4.49687 14.6797 4.27805 14.5249C4.0183 14.3407 3.94012 14.0468 4.05713 13.6952C4.38615 12.7066 4.75085 11.729 5.03579 10.7278C5.25566 9.95432 5.66443 9.35191 6.23483 8.79043C8.87221 6.19346 11.4823 3.56868 14.0934 0.944947C14.5699 0.465853 15.0947 0.106401 15.7784 0.020343C15.7889 0.0187688 15.7978 0.00722438 15.8078 -0.00012207C16.0019 -0.00012207 16.1961 -0.00012207 16.3908 -0.00012207V0.000402676ZM5.72111 12.9223C5.77883 12.9076 5.81346 12.9013 5.846 12.8908C6.63312 12.6274 7.42076 12.3661 8.20578 12.0974C8.28712 12.0696 8.36268 12.0082 8.4246 11.9463C11.2372 9.13624 14.0483 6.32465 16.8589 3.51306C16.9318 3.44012 17.0032 3.36508 17.0646 3.28217C17.3448 2.90383 17.3941 2.4877 17.2052 2.06318C17.0131 1.63132 16.6663 1.38783 16.1888 1.34743C15.7621 1.31122 15.4305 1.49646 15.1377 1.78926C12.5381 4.39148 9.94584 7.00157 7.32683 9.58385C6.80628 10.0971 6.4122 10.6375 6.23378 11.3517C6.1026 11.877 5.90005 12.3844 5.72163 12.9228L5.72111 12.9223Z" fill="black"/>
</svg>
