<svg width="20" height="20" viewBox="0 0 20 20" fill="none" xmlns="http://www.w3.org/2000/svg">
<path d="M0.676917 3.91947C0.705778 3.81609 0.73254 3.71219 0.7635 3.60934C1.00646 2.80753 1.72746 2.24395 2.56548 2.20092C2.65049 2.19672 2.7355 2.1941 2.81998 2.1941C5.38127 2.1941 7.94256 2.19358 10.5038 2.19463C10.6125 2.19463 10.7248 2.19358 10.8297 2.21667C11.132 2.28278 11.3445 2.57822 11.3267 2.89201C11.3083 3.21683 11.0632 3.4834 10.7468 3.51646C10.6628 3.52538 10.5773 3.52223 10.4923 3.52223C7.91894 3.52223 5.34559 3.52223 2.77223 3.52223C2.38916 3.52223 2.12417 3.69068 2.04231 3.99975C2.01187 4.11467 2.01187 4.24009 2.01135 4.36025C2.00977 7.09733 2.0103 9.83494 2.0103 12.572C2.0103 14.162 2.0103 15.7525 2.0103 17.3425C2.0103 17.4333 2.0103 17.5251 2.02237 17.6148C2.0591 17.8961 2.29366 18.127 2.57598 18.1616C2.65993 18.1721 2.74547 18.1726 2.83048 18.1726C6.72095 18.1726 10.6114 18.1726 14.5019 18.1726C14.5869 18.1726 14.6724 18.1716 14.7564 18.1616C15.0529 18.1265 15.2911 17.8804 15.3179 17.5818C15.3257 17.4973 15.3242 17.4118 15.3242 17.3273C15.3242 15.2152 15.3236 13.1031 15.3263 10.991C15.3263 10.8655 15.3378 10.7338 15.3766 10.6152C15.4653 10.3439 15.7434 10.1697 16.0279 10.1849C16.3159 10.2002 16.5615 10.3985 16.6313 10.6803C16.6513 10.7616 16.6602 10.8482 16.6607 10.9322C16.6623 13.1109 16.6649 15.2902 16.6607 17.469C16.6586 18.4424 16.0467 19.2258 15.1227 19.4467C14.9479 19.4887 14.7627 19.5039 14.5822 19.5039C10.6371 19.5071 6.69209 19.5071 2.74704 19.506C1.68705 19.506 0.908854 18.8616 0.705252 17.8237C0.700529 17.8011 0.686362 17.7801 0.676392 17.7581C0.676392 13.1445 0.676392 8.53147 0.676392 3.91789L0.676917 3.91947Z" fill="black"/>
<path d="M17.067 0.860144C17.4165 0.988182 17.7943 1.06689 18.1102 1.25213C19.4604 2.04292 19.7307 3.93359 18.6822 5.09642C18.6009 5.18668 18.5164 5.27379 18.4309 5.35932C15.5993 8.19138 12.7662 11.0224 9.93627 13.856C9.7736 14.0192 9.59361 14.1326 9.37321 14.205C8.13061 14.6127 6.89011 15.0288 5.64961 15.4439C5.40718 15.5252 5.17314 15.5394 4.95432 15.3846C4.69457 15.2004 4.61639 14.9066 4.7334 14.555C5.06242 13.5664 5.42712 12.5888 5.71206 11.5875C5.93193 10.8141 6.3407 10.2117 6.9111 9.65017C9.54848 7.0532 12.1586 4.42842 14.7697 1.80469C15.2462 1.32559 15.7709 0.966143 16.4547 0.880084C16.4652 0.87851 16.4741 0.866966 16.4841 0.859619C16.6782 0.859619 16.8724 0.859619 17.067 0.859619V0.860144ZM6.39738 13.782C6.4551 13.7673 6.48973 13.761 6.52227 13.7505C7.30939 13.4871 8.09703 13.2258 8.88205 12.9571C8.96339 12.9293 9.03895 12.8679 9.10087 12.806C11.9135 9.99598 14.7246 7.18439 17.5351 4.3728C17.6081 4.29986 17.6794 4.22482 17.7408 4.14191C18.021 3.76357 18.0704 3.34744 17.8815 2.92292C17.6894 2.49106 17.3425 2.24757 16.865 2.20717C16.4384 2.17096 16.1068 2.3562 15.814 2.64901C13.2144 5.25122 10.6221 7.86131 8.0031 10.4436C7.48255 10.9568 7.08847 11.4973 6.91005 12.2115C6.77887 12.7367 6.57631 13.2442 6.3979 13.7826L6.39738 13.782Z" fill="black"/>
</svg>
