<svg width="20" height="20" viewBox="0 0 20 20" fill="none" xmlns="http://www.w3.org/2000/svg">
<path d="M0.676947 3.91935C0.705808 3.81597 0.73257 3.71207 0.76353 3.60922C1.00649 2.80741 1.72749 2.24383 2.56551 2.2008C2.65052 2.1966 2.73553 2.19398 2.82001 2.19398C5.3813 2.19398 7.94259 2.19345 10.5039 2.1945C10.6125 2.1945 10.7248 2.19345 10.8297 2.21654C11.132 2.28266 11.3445 2.57809 11.3267 2.89189C11.3083 3.21671 11.0633 3.48328 10.7468 3.51634C10.6629 3.52526 10.5773 3.52211 10.4923 3.52211C7.91897 3.52211 5.34562 3.52211 2.77226 3.52211C2.3892 3.52211 2.1242 3.69056 2.04234 3.99963C2.0119 4.11455 2.0119 4.23997 2.01138 4.36013C2.0098 7.09721 2.01033 9.83482 2.01033 12.5719C2.01033 14.1619 2.01033 15.7524 2.01033 17.3424C2.01033 17.4331 2.01033 17.525 2.0224 17.6147C2.05913 17.896 2.29369 18.1269 2.57601 18.1615C2.65997 18.172 2.7455 18.1725 2.83051 18.1725C6.72098 18.1725 10.6114 18.1725 14.5019 18.1725C14.5869 18.1725 14.6725 18.1715 14.7564 18.1615C15.0529 18.1263 15.2911 17.8802 15.3179 17.5816C15.3258 17.4972 15.3242 17.4116 15.3242 17.3271C15.3242 15.215 15.3237 13.1029 15.3263 10.9908C15.3263 10.8654 15.3378 10.7337 15.3767 10.6151C15.4654 10.3438 15.7435 10.1696 16.0279 10.1848C16.316 10.2 16.5616 10.3984 16.6313 10.6802C16.6513 10.7615 16.6602 10.8481 16.6607 10.9321C16.6623 13.1108 16.6649 15.2901 16.6607 17.4688C16.6586 18.4422 16.0468 19.2257 15.1227 19.4466C14.948 19.4886 14.7627 19.5038 14.5822 19.5038C10.6372 19.5069 6.69212 19.5069 2.74707 19.5059C1.68708 19.5059 0.908884 18.8615 0.705283 17.8236C0.70056 17.801 0.686392 17.78 0.676422 17.758C0.676422 13.1444 0.676422 8.53134 0.676422 3.91777L0.676947 3.91935Z" fill="black"/>
<path d="M17.067 0.860144C17.4165 0.988182 17.7943 1.06689 18.1102 1.25213C19.4604 2.04292 19.7307 3.93359 18.6822 5.09642C18.6009 5.18668 18.5164 5.27379 18.4309 5.35932C15.5993 8.19138 12.7662 11.0224 9.93627 13.856C9.7736 14.0192 9.59361 14.1326 9.37321 14.205C8.13061 14.6127 6.89011 15.0288 5.64961 15.4439C5.40718 15.5252 5.17314 15.5394 4.95432 15.3846C4.69457 15.2004 4.61639 14.9066 4.7334 14.555C5.06242 13.5664 5.42712 12.5888 5.71206 11.5875C5.93193 10.8141 6.3407 10.2117 6.9111 9.65017C9.54848 7.0532 12.1586 4.42842 14.7697 1.80469C15.2462 1.32559 15.7709 0.966143 16.4547 0.880084C16.4652 0.87851 16.4741 0.866966 16.4841 0.859619C16.6782 0.859619 16.8724 0.859619 17.067 0.859619V0.860144ZM6.39738 13.782C6.4551 13.7673 6.48973 13.761 6.52227 13.7505C7.30939 13.4871 8.09703 13.2258 8.88205 12.9571C8.96339 12.9293 9.03895 12.8679 9.10087 12.806C11.9135 9.99598 14.7246 7.18439 17.5351 4.3728C17.6081 4.29986 17.6794 4.22482 17.7408 4.14191C18.021 3.76357 18.0704 3.34744 17.8815 2.92292C17.6894 2.49106 17.3425 2.24757 16.865 2.20717C16.4384 2.17096 16.1068 2.3562 15.814 2.64901C13.2144 5.25122 10.6221 7.86131 8.0031 10.4436C7.48255 10.9568 7.08847 11.4973 6.91005 12.2115C6.77887 12.7367 6.57631 13.2442 6.3979 13.7826L6.39738 13.782Z" fill="black"/>
</svg>
