<svg width="21" height="22" viewBox="0 0 21 22" fill="none" xmlns="http://www.w3.org/2000/svg">
<path d="M10.599 21.229C8.21778 21.229 5.83596 21.2313 3.45471 21.2279C1.93816 21.2256 0.703863 20.3082 0.320387 18.8894C0.248088 18.621 0.207022 18.3353 0.206444 18.0577C0.198924 14.4919 0.193719 10.9261 0.206444 7.36087C0.210492 6.14624 0.748401 5.19016 1.80975 4.59904C4.24017 3.24444 6.68388 1.91471 9.13338 0.595972C10.1022 0.0742601 11.1121 0.08872 12.0797 0.606961C14.4945 1.89967 16.9012 3.20684 19.3033 4.52327C20.4236 5.13752 20.9939 6.10633 20.9957 7.3869C21.0015 10.9238 21.0015 14.4607 20.9957 17.9975C20.9928 19.8501 19.6202 21.2227 17.7648 21.2285C15.376 21.2354 12.9872 21.2302 10.599 21.2302V21.229ZM10.5857 19.8432C10.636 19.8432 10.6869 19.8432 10.7373 19.8432C13.0682 19.8432 15.3997 19.8461 17.7306 19.842C18.8221 19.8403 19.5994 19.0867 19.6006 18.0265C19.6041 14.4676 19.6041 10.9093 19.6 7.35046C19.5994 6.64193 19.2744 6.10807 18.6601 5.75525C18.4039 5.60834 18.1419 5.47126 17.8822 5.33013C15.7543 4.17392 13.6258 3.01829 11.4979 1.8615C10.9166 1.5457 10.3249 1.5162 9.74012 1.83258C7.33689 3.13223 4.93655 4.43593 2.53853 5.74484C1.90866 6.08898 1.58939 6.63672 1.58881 7.35509C1.58592 10.9064 1.58649 14.4578 1.59054 18.0097C1.59054 18.1878 1.6131 18.3718 1.66053 18.543C1.88321 19.3527 2.57324 19.842 3.48421 19.8426C5.85157 19.8444 8.21836 19.8432 10.5857 19.8432Z" fill="black"/>
<path d="M10.6031 18.2006C8.64984 18.1826 6.97597 16.8535 6.54102 14.961C6.45831 14.6024 6.55837 14.3143 6.82501 14.1425C7.0743 13.9818 7.41786 13.976 7.62956 14.1836C7.7597 14.3109 7.85745 14.4983 7.90892 14.6758C8.23745 15.8141 8.9616 16.5325 10.1271 16.7598C11.5337 17.0339 12.9178 16.1461 13.281 14.7585C13.3585 14.4618 13.4523 14.1871 13.7738 14.0749C14.033 13.9846 14.2741 14.0263 14.4812 14.2079C14.6975 14.3976 14.7583 14.6434 14.69 14.9159C14.2903 16.5215 13.2955 17.5643 11.7136 18.0444C11.5626 18.0901 11.4047 18.1178 11.248 18.1387C11.034 18.167 10.8182 18.1803 10.6031 18.2V18.2006Z" fill="black"/>
</svg>
