<svg width="21" height="22" viewBox="0 0 21 22" fill="none" xmlns="http://www.w3.org/2000/svg">
<path d="M10.5995 21.229C8.21827 21.229 5.83644 21.2313 3.4552 21.2279C1.93865 21.2256 0.704351 20.3082 0.320876 18.8894C0.248576 18.621 0.20751 18.3353 0.206932 18.0577C0.199413 14.4919 0.194207 10.9261 0.206932 7.36087C0.210981 6.14624 0.748889 5.19016 1.81024 4.59904C4.24065 3.24444 6.68437 1.91471 9.13387 0.595972C10.1027 0.0742601 11.1126 0.08872 12.0802 0.606961C14.495 1.89967 16.9017 3.20684 19.3038 4.52327C20.4241 5.13752 20.9944 6.10633 20.9962 7.3869C21.0019 10.9238 21.0019 14.4607 20.9962 17.9975C20.9933 19.8501 19.6207 21.2227 17.7652 21.2285C15.3765 21.2354 12.9877 21.2302 10.5995 21.2302V21.229ZM10.5862 19.8432C10.6365 19.8432 10.6874 19.8432 10.7378 19.8432C13.0687 19.8432 15.4002 19.8461 17.7311 19.842C18.8226 19.8403 19.5999 19.0867 19.6011 18.0265C19.6045 14.4676 19.6045 10.9093 19.6005 7.35046C19.5999 6.64193 19.2749 6.10807 18.6606 5.75525C18.4044 5.60834 18.1424 5.47126 17.8827 5.33013C15.7548 4.17392 13.6263 3.01829 11.4983 1.8615C10.9171 1.5457 10.3254 1.5162 9.7406 1.83258C7.33738 3.13223 4.93704 4.43593 2.53902 5.74484C1.90915 6.08898 1.58987 6.63672 1.5893 7.35509C1.5864 10.9064 1.58698 14.4578 1.59103 18.0097C1.59103 18.1878 1.61359 18.3718 1.66102 18.543C1.8837 19.3527 2.57372 19.842 3.48469 19.8426C5.85206 19.8444 8.21885 19.8432 10.5862 19.8432Z" fill="black"/>
<path d="M10.604 18.2006C8.65076 18.1827 6.97689 16.8535 6.54193 14.961C6.45922 14.6024 6.55928 14.3144 6.82592 14.1426C7.07521 13.9818 7.41878 13.976 7.63047 14.1837C7.76061 14.3109 7.85836 14.4983 7.90984 14.6759C8.23837 15.8142 8.96251 16.5325 10.128 16.7598C11.5346 17.034 12.9187 16.1462 13.282 14.7586C13.3595 14.4619 13.4532 14.1871 13.7748 14.0749C14.0339 13.9847 14.2751 14.0263 14.4821 14.208C14.6984 14.3977 14.7592 14.6435 14.6909 14.9159C14.2913 16.5215 13.2964 17.5644 11.7145 18.0445C11.5636 18.0901 11.4057 18.1179 11.2489 18.1387C11.0349 18.1671 10.8192 18.1804 10.604 18.2V18.2006Z" fill="black"/>
</svg>
