<svg width="24" height="24" viewBox="0 0 24 24" fill="none" xmlns="http://www.w3.org/2000/svg">
<g clip-path="url(#clip0_284_311)">
<path d="M22.0841 24H5.81849C5.65036 23.9713 5.48224 23.9406 5.31411 23.9137C2.59411 23.475 0.47724 21.3144 0.06599 18.5556C-0.332135 15.8881 1.10161 13.1881 3.54474 11.9944C4.20161 11.6737 4.89286 11.4756 5.63099 11.3787V11.0875C5.63099 8.12062 5.63161 5.15312 5.63099 2.18625C5.63099 1.41125 5.93036 0.781875 6.58161 0.36125C6.84286 0.1925 7.16536 0.1175 7.45974 0C11.2097 0 14.9597 0 18.7097 0C18.8947 0.15 19.0947 0.285 19.2629 0.451875C20.7079 1.88875 22.1447 3.33375 23.5904 4.76937C23.816 4.99375 23.9179 5.23937 23.9172 5.55937C23.9104 8.76 23.9129 11.9613 23.9129 15.1619C23.9129 17.3869 23.9185 19.6119 23.9104 21.8369C23.9072 22.7706 23.4666 23.4412 22.6166 23.8306C22.4491 23.9075 22.2622 23.9444 22.0841 24ZM17.8185 1.40625C17.7116 1.40625 17.6347 1.40625 17.5579 1.40625C14.3241 1.40625 11.0904 1.40625 7.85661 1.40625C7.30974 1.40625 7.03786 1.67875 7.03786 2.22688C7.03786 5.195 7.03786 8.16313 7.03786 11.1313V11.3806C8.20037 11.525 9.22224 11.9362 10.1416 12.6131C10.2497 12.6931 10.4066 12.7444 10.5416 12.7444C13.6035 12.7519 16.6654 12.75 19.7272 12.75C19.8054 12.75 19.8835 12.7469 19.9616 12.7519C20.3241 12.7756 20.6104 13.0606 20.6304 13.415C20.6504 13.7675 20.3935 14.0881 20.0372 14.1462C19.9454 14.1613 19.8504 14.1556 19.7566 14.1556C17.1397 14.1556 14.5235 14.1556 11.9066 14.1556H11.5954C12.171 15.0388 12.5022 15.9606 12.6254 16.9681H13.0166C15.2897 16.9681 15.5629 16.97 17.836 16.9662C18.1735 16.9662 18.4341 17.085 18.5729 17.3988C18.786 17.8819 18.4247 18.3731 17.8591 18.3738C15.5391 18.3756 15.2191 18.3744 12.8997 18.3744H12.6272C12.4066 20.0812 11.6385 21.4637 10.3197 22.5931C10.4541 22.5931 10.5241 22.5931 10.5941 22.5931C14.281 22.5931 17.9679 22.5931 21.6547 22.5931C22.2485 22.5931 22.5072 22.3319 22.5072 21.735C22.5072 16.6106 22.5072 11.4869 22.5072 6.3625V6.0925H22.2297C21.0266 6.0925 19.8241 6.09313 18.621 6.0925C18.1022 6.0925 17.8216 5.81375 17.8204 5.30062C17.8191 4.74625 17.8204 4.19125 17.8204 3.63687C17.8204 2.90375 17.8204 2.17062 17.8204 1.405L17.8185 1.40625ZM11.256 17.6688C11.2547 14.9594 9.04661 12.7513 6.33724 12.75C3.62724 12.7487 1.41662 14.9538 1.41286 17.6625C1.40911 20.3825 3.62349 22.5969 6.34286 22.5931C9.05099 22.5894 11.2572 20.3787 11.256 17.6688ZM21.3835 4.67688C20.6716 3.96438 19.9391 3.2325 19.2422 2.53562V4.67688H21.3835Z" fill="black"/>
<path d="M7.03691 16.9686C7.42504 16.9686 7.78254 16.9668 8.14066 16.9686C8.59441 16.9711 8.91191 17.2624 8.91066 17.6724C8.90941 18.083 8.59316 18.3724 8.13816 18.3736C7.56004 18.3755 6.98254 18.3761 6.40441 18.3736C5.91879 18.3718 5.63254 18.0868 5.63129 17.6024C5.62941 16.7124 5.62941 15.8218 5.63129 14.9318C5.63191 14.4755 5.92066 14.1586 6.33004 14.1568C6.74004 14.1543 7.03504 14.4711 7.03629 14.9243C7.03879 15.5949 7.03691 16.2655 7.03691 16.9686Z" fill="black"/>
</g>
<defs>
<clipPath id="clip0_284_311">
<rect width="24" height="24" fill="white"/>
</clipPath>
</defs>
</svg>
