<svg width="20" height="23" viewBox="0 0 20 23" fill="none" xmlns="http://www.w3.org/2000/svg">
<path d="M2.85643 23C2.53122 22.8982 2.19082 22.8301 1.88305 22.6894C0.647486 22.1234 -0.0490692 20.894 0.00269419 19.5364C0.0640225 17.9289 0.449434 16.4187 1.24051 15.0183C2.30954 13.1267 3.83881 11.7364 5.82551 10.8519C5.95492 10.794 6.08545 10.7383 6.24412 10.6691C4.348 9.12798 3.52654 7.16491 3.95134 4.75792C4.1989 3.35243 4.92922 2.1945 6.04663 1.30158C8.50033 -0.659237 11.9128 -0.333465 13.9597 1.80065C15.1862 3.07954 15.7433 4.62007 15.5964 6.38733C15.4501 8.15404 14.6197 9.56122 13.2091 10.6578C13.5107 10.7962 13.7909 10.9133 14.0598 11.0511C16.4584 12.2788 18.0979 14.171 18.9695 16.7169C19.3329 17.7792 19.5079 18.8814 19.441 20.0062C19.3526 21.4916 18.1986 22.7277 16.7251 22.9561C16.6834 22.9629 16.6441 22.9842 16.6035 22.9994H2.85643V23ZM9.7404 21.2344C11.8436 21.2344 13.9467 21.2232 16.0499 21.2389C17.1409 21.2474 17.7722 20.445 17.6816 19.5628C17.6489 19.2432 17.6411 18.9203 17.5927 18.6029C17.241 16.2865 16.0988 14.4365 14.1515 13.1588C11.6382 11.5097 8.94256 11.2902 6.24299 12.6316C3.35268 14.068 1.88924 16.4919 1.78065 19.7192C1.77278 19.9482 1.83467 20.2008 1.93482 20.4085C2.22289 21.0049 2.74334 21.235 3.38532 21.235C5.50368 21.2339 7.62147 21.235 9.73983 21.235L9.7404 21.2344ZM9.71676 10.0209C11.9859 10.0305 13.846 8.18442 13.8595 5.90965C13.873 3.64894 12.0292 1.7939 9.74265 1.76689C7.49713 1.74045 5.61283 3.61293 5.60045 5.88377C5.58751 8.14673 7.44312 10.0113 9.71733 10.0209H9.71676Z" fill="black"/>
</svg>
