<?xml version="1.0" standalone="no"?>
<!DOCTYPE svg PUBLIC "-//W3C//DTD SVG 20010904//EN"
 "http://www.w3.org/TR/2001/REC-SVG-20010904/DTD/svg10.dtd">
<svg version="1.0" xmlns="http://www.w3.org/2000/svg"
 width="225.000000pt" height="225.000000pt" viewBox="0 0 225.000000 225.000000"
 preserveAspectRatio="xMidYMid meet">
<metadata>
Created by potrace 1.10, written by Peter Selinger 2001-2011
</metadata>
<g transform="translate(0.000000,225.000000) scale(0.100000,-0.100000)"
fill="#000000" stroke="none">
<path d="M553 1741 c-60 -38 -64 -57 -61 -301 l3 -219 30 -31 c44 -46 79 -52
295 -48 286 5 283 2 288 288 4 216 -2 251 -48 295 l-31 30 -222 3 c-207 2
-224 1 -254 -17z m451 -25 c63 -26 66 -38 66 -258 0 -120 -4 -206 -11 -221
-23 -51 -50 -57 -266 -57 -278 0 -273 -5 -273 276 0 272 1 273 273 274 130 0
187 -4 211 -14z"/>
<path d="M1224 1750 c-35 -14 -72 -68 -79 -113 -4 -24 -5 -124 -3 -223 3 -192
8 -212 62 -247 28 -19 37 -19 279 -18 l197 1 38 34 37 34 3 221 c3 245 -1 265
-61 301 -29 18 -51 20 -242 19 -115 0 -219 -4 -231 -9z m455 -34 c46 -24 51
-50 51 -269 0 -283 6 -277 -280 -277 -286 0 -283 -4 -278 296 l3 206 33 29 32
29 206 0 c158 0 211 -3 233 -14z"/>

<path d="M575 1096 c-16 -7 -41 -26 -55 -41 -25 -26 -25 -28 -28 -245 -3 -244
1 -263 61 -301 30 -18 47 -19 254 -17 l222 3 31 30 c46 44 52 79 48 297 -3
180 -5 199 -24 225 -42 57 -69 63 -284 63 -140 -1 -203 -5 -225 -14z m444 -40
c46 -24 51 -50 51 -267 l0 -201 -28 -28 c-37 -37 -79 -43 -283 -38 -238 5
-237 3 -239 270 -1 282 -5 278 273 278 152 0 204 -3 226 -14z"/>
<rect x="1192" y="500" width="530" height="600" fill="#4477cc"/>
<path fill="#4477cc"  d="M1221 1092 c-71 -36 -76 -50 -79 -270 -4 -218 2 -253 48 -297 l31
-30 222 -3 c207 -2 224 -1 254 17 60 38 64 57 61 301 -3 217 -3 219 -28 246
-45 49 -73 54 -282 54 -164 0 -198 -3 -227 -18z m462 -43 c42 -32 49 -76 45
-274 -4 -255 2 -249 -253 -253 -198 -4 -242 3 -274 45 -20 24 -21 39 -21 227
1 148 4 207 14 225 26 46 47 50 262 51 188 0 203 -1 227 -21z"/>
<rect  fill="#4477cc"/>
<!--<path d="M1247 1002 c-15 -16 -17 -46 -17 -205 l0 -186 26 -20 c25 -19 40 -21
199 -21 l172 0 27 26 26 27 0 172 c0 159 -2 174 -21 199 l-20 26 -188 0 c-169
0 -190 -2 -204 -18z m393 -202 l0 -190 -190 0 -190 0 0 183 c0 101 3 187 7
190 3 4 89 7 190 7 l183 0 0 -190z"/>-->
</g>
</svg>
